<svg xmlns="http://www.w3.org/2000/svg" width="30" height="30" viewBox="0 0 30 30">
    <defs>
        <filter id="1tb0oaaj0a" color-interpolation-filters="auto">
            <feColorMatrix in="SourceGraphic" values="0 0 0 0 0.390927 0 0 0 0 0.400192 0 0 0 0 0.400192 0 0 0 1.000000 0"/>
        </filter>
    </defs>
    <g fill="none" fill-rule="evenodd">
        <g>
            <g filter="url(#1tb0oaaj0a)" transform="translate(-184.000000, -305.000000) translate(182.000000, 303.000000)">
                <path fill="#000" fill-rule="nonzero" d="M24.772 0c.359 0 .655.225.702.517l.007.082-.001.997h2.853v26.737H0V1.596h3.105V.599c0-.331.317-.599.708-.599.359 0 .655.225.702.517L4.522.6l-.001.997h.136V.599c0-.331.318-.599.709-.599.358 0 .655.225.702.517L6.074.6v.997h.136V.599c0-.331.317-.599.708-.599.359 0 .655.225.702.517L7.627.6l-.001.997h.136V.599c0-.331.318-.599.709-.599.358 0 .655.225.702.517L9.179.6v.997h10.227V.599c0-.331.318-.599.709-.599.358 0 .655.225.702.517l.006.082v.997h.135V.599c0-.331.318-.599.71-.599.358 0 .654.225.701.517l.007.082-.001.997h.136V.599c0-.331.318-.599.709-.599.358 0 .655.225.702.517l.006.082v.997h.135V.599c0-.331.318-.599.71-.599zm2.396 6.991H1.164v20.145H27.17l-.001-20.145zm-.775.99v17.16H1.94V7.98h24.452zM15.935 21.37h-3.241v2.574h3.241v-2.574zm-9.315 0H3.105v2.575l3.515-.001v-2.574zm4.658 0H8.037v2.574h3.241v-2.574zm9.315 0h-3.241v2.574h3.241v-2.574zm4.635 0h-3.219v2.574h3.22l-.001-2.574zm-13.95-3.99H8.037v2.574h3.241v-2.574zm-4.658 0H3.105v2.574H6.62v-2.574zm13.973 0h-3.241v2.574h3.241v-2.574zm4.635 0h-3.219v2.574h3.219v-2.574zm-9.293 0h-3.241v2.574h3.241v-2.574zM6.62 13.388H3.105v2.574H6.62v-2.574zm4.658 0H8.037v2.574h3.241v-2.574zm9.315 0h-3.241v2.574h3.241v-2.574zm4.635 0h-3.219v2.574h3.219v-2.574zm-9.293 0h-3.241v2.574h3.241v-2.574zM6.62 9.178H3.105v2.793H6.62V9.178zm4.658 0H8.037v2.793h3.241V9.178zm9.315 0h-3.241v2.793h3.241V9.178zm4.635 0H22.01v2.793h3.219V9.178zm-9.293 0h-3.241v2.793h3.241V9.178zM3.105 2.793h-1.94l-.001 2.781h26.004v-2.78l-1.688-.001v.998c0 .33-.317.599-.708.599-.358 0-.655-.226-.702-.518l-.006-.08-.001-.999h-.135v.998c0 .33-.317.599-.708.599-.359 0-.655-.226-.702-.518l-.007-.08v-.999h-.136v.998c0 .33-.317.599-.708.599-.358 0-.655-.226-.702-.518l-.006-.08-.001-.999h-.135v.998c0 .33-.317.599-.708.599-.359 0-.655-.226-.702-.518l-.007-.08v-.999H9.179v.998c0 .33-.317.599-.708.599-.359 0-.655-.226-.702-.518l-.006-.08-.001-.999h-.136v.998c0 .33-.316.599-.708.599-.358 0-.655-.226-.701-.518l-.007-.08v-.999h-.136v.998c0 .33-.317.599-.708.599-.359 0-.655-.226-.702-.518l-.006-.08-.001-.999h-.136v.998c0 .33-.316.599-.708.599-.358 0-.655-.226-.702-.518l-.006-.08v-.999z" transform="translate(2.833333, 2.833333)"/>
            </g>
        </g>
    </g>
</svg>
