<svg width="20" height="20" viewBox="0 0 20 20" fill="none" xmlns="http://www.w3.org/2000/svg">
<path fill-rule="evenodd" clip-rule="evenodd" d="M8.4 0C3.76081 0 0 3.76081 0 8.4C0 13.0392 3.76081 16.8 8.4 16.8C10.3349 16.8 12.1171 16.1458 13.5373 15.0464L18.2963 19.5064C18.6187 19.8086 19.125 19.7921 19.4271 19.4698C19.7292 19.1474 19.7128 18.6411 19.3904 18.339L14.7062 13.9492C16.0095 12.4693 16.8 10.5269 16.8 8.4C16.8 3.76081 13.0392 0 8.4 0ZM8.4 1.6C12.1555 1.6 15.2 4.64446 15.2 8.4C15.2 12.1555 12.1555 15.2 8.4 15.2C4.64446 15.2 1.6 12.1555 1.6 8.4C1.6 4.64446 4.64446 1.6 8.4 1.6Z" fill="#797878"/>
</svg>
