<svg width="512" height="512" viewBox="0 0 512 512" fill="none" xmlns="http://www.w3.org/2000/svg">
<path d="M0 40C0 17.9086 17.9086 0 40 0H472C494.091 0 512 17.9086 512 40V472C512 494.091 494.091 512 472 512H40C17.9086 512 0 494.091 0 472V40Z" fill="white"/>
<path d="M224.263 422.619C204.737 442.145 176.047 445.113 160.182 429.248L76.9008 345.967C62.6084 331.675 65.2822 305.828 82.8727 288.238C100.463 270.647 126.31 267.973 140.602 282.266L209.356 351.02C218.03 359.694 228.737 366.16 240.857 370.045L268.104 378.778L224.263 422.619Z" fill="#06BDA3"/>
<path d="M74.15 379.939C89.361 364.728 114.023 364.728 129.234 379.939C144.445 395.15 144.445 419.812 129.234 435.023C114.023 450.234 89.361 450.234 74.15 435.023C58.939 419.812 58.939 395.15 74.15 379.939Z" fill="#06BDA3"/>
<path d="M287.909 89.5537C307.435 70.0275 336.126 67.0595 351.991 82.9246L435.272 166.206C449.564 180.498 446.89 206.344 429.3 223.935C411.709 241.525 385.863 244.199 371.571 229.907L302.816 161.153C294.143 152.479 283.435 146.012 271.315 142.127L244.069 133.394L287.909 89.5537Z" fill="#A50CE2"/>
<path d="M438.023 132.234C422.812 147.445 398.15 147.445 382.939 132.234C367.728 117.023 367.728 92.361 382.939 77.15C398.15 61.939 422.812 61.939 438.023 77.15C453.233 92.361 453.233 117.023 438.023 132.234Z" fill="#A50CE2"/>
<path d="M425.446 285.584C444.973 305.11 447.94 333.801 432.075 349.666L348.794 432.947C334.502 447.239 308.656 444.565 291.065 426.975C273.475 409.384 270.801 383.538 285.093 369.246L353.847 300.491C362.521 291.818 368.988 281.11 372.873 268.99L381.606 241.743L425.446 285.584Z" fill="#E10A0A"/>
<path d="M382.766 435.697C367.555 420.486 367.555 395.825 382.766 380.614C397.977 365.403 422.639 365.403 437.85 380.614C453.061 395.825 453.061 420.486 437.85 435.697C422.639 450.908 397.977 450.908 382.766 435.697Z" fill="#E10A0A"/>
<path d="M86.5537 226.263C67.0275 206.737 64.0595 178.047 79.9246 162.182L163.206 78.9008C177.498 64.6084 203.344 67.2822 220.935 84.8727C238.525 102.463 241.199 128.31 226.907 142.602L158.153 211.356C149.479 220.03 143.012 230.737 139.127 242.857L130.394 270.104L86.5537 226.263Z" fill="#FFBA35"/>
<path d="M129.234 76.15C144.445 91.361 144.445 116.023 129.234 131.234C114.023 146.445 89.3609 146.445 74.15 131.234C58.939 116.023 58.939 91.361 74.15 76.15C89.3609 60.939 114.023 60.939 129.234 76.15Z" fill="#FFBA35"/>
</svg>
