<svg width="17" height="17" viewBox="0 0 17 17" fill="none" xmlns="http://www.w3.org/2000/svg">
<path fill-rule="evenodd" clip-rule="evenodd" d="M7 0C3.13401 0 0 3.13401 0 7C0 10.866 3.13401 14 7 14C8.61245 14 10.0976 13.4548 11.2811 12.5387L15.2469 16.2554C15.5156 16.5071 15.9375 16.4934 16.1892 16.2248C16.441 15.9561 16.4273 15.5342 16.1587 15.2825L12.2552 11.6243C13.3412 10.391 14 8.77245 14 7C14 3.13401 10.866 0 7 0ZM7 1.33333C10.1296 1.33333 12.6667 3.87039 12.6667 7C12.6667 10.1296 10.1296 12.6667 7 12.6667C3.87039 12.6667 1.33333 10.1296 1.33333 7C1.33333 3.87039 3.87039 1.33333 7 1.33333Z" fill="#424242"/>
</svg>
